<svg xmlns="http://www.w3.org/2000/svg" xml:space="preserve" viewBox="0 0 1300.579 825.802">
  <path d="M200 270H-50v-40h250zm250 0H200v-40h250z" style="fill:#8be9fd;stroke:none;stroke-width:1.84012;stroke-linecap:round;stroke-linejoin:round;paint-order:stroke fill markers" transform="translate(100.29 -87.099)" class="fill-blue"/>
  <path d="M180 500V250h40v250z" style="fill:#8be9fd;stroke-width:1.84012;stroke-linecap:round;stroke-linejoin:round;paint-order:stroke fill markers" transform="translate(100.29 -87.099)" class="fill-blue"/>
  <path d="M150 250a50 50 0 0 1 50-50 50 50 0 0 1 50 50 50 50 0 0 1-50 50 50 50 0 0 1-50-50m250 0a50 50 0 0 1 50-50 50 50 0 0 1 50 50 50 50 0 0 1-50 50 50 50 0 0 1-50-50m-500 0a50 50 0 0 1 50-50 50 50 0 0 1 50 50 50 50 0 0 1-50 50 50 50 0 0 1-50-50" style="fill:#f8f8f2;stroke:none;stroke-width:2.25367;stroke-linecap:round;stroke-linejoin:round;paint-order:stroke fill markers" transform="translate(100.29 -87.099)" class="stroke-comment fill-comment"/>
  <text x="-5.905" y="82.901" style="font-size:112.438px;font-family:Inter;-inkscape-font-specification:Inter;text-align:start;writing-mode:lr-tb;direction:ltr;text-anchor:start;fill:#f8f8f2;stroke:none;stroke-width:4.68661;stroke-linejoin:round;paint-order:stroke fill markers" class="stroke-comment fill-comment">           <tspan x="-5.905" y="82.901">-2</tspan>        </text>
  <text x="494.095" y="82.901" style="font-size:112.438px;font-family:Inter;-inkscape-font-specification:Inter;text-align:start;writing-mode:lr-tb;direction:ltr;text-anchor:start;fill:#f8f8f2;stroke:none;stroke-width:4.68661;stroke-linejoin:round;paint-order:stroke fill markers" class="stroke-comment fill-comment">           <tspan x="494.095" y="82.901">-2</tspan>        </text>
  <text x="254.553" y="82.901" style="font-size:112.438px;font-family:Inter;-inkscape-font-specification:Inter;text-align:start;writing-mode:lr-tb;direction:ltr;text-anchor:start;fill:#f8f8f2;stroke:none;stroke-width:4.68661;stroke-linejoin:round;paint-order:stroke fill markers" class="stroke-comment fill-comment">           <tspan x="254.553" y="82.901">-1</tspan>        </text>
  <path d="M200 520H-50v-40h250zm250 0H200v-40h250Z" style="fill:#ffb86c;stroke-width:1.84012;stroke-linecap:round;stroke-linejoin:round;paint-order:stroke fill markers" transform="translate(100.29 -87.099)" class="fill-orange"/>
  <path d="M150 500a50 50 0 0 1 50-50 50 50 0 0 1 50 50 50 50 0 0 1-50 50 50 50 0 0 1-50-50" style="fill:#f8f8f2;stroke-width:2.25367;stroke-linecap:round;stroke-linejoin:round;paint-order:stroke fill markers" transform="translate(100.29 -87.099)" class="stroke-comment fill-comment"/>
  <path d="M900 730h250v40H900Zm-250 0h250v40H650z" style="fill:#8be9fd;stroke:none;stroke-width:1.84012;stroke-linecap:round;stroke-linejoin:round;paint-order:stroke fill markers" transform="translate(100.29 -87.099)" class="fill-blue"/>
  <path d="M920 500v250h-40V500Z" style="fill:#8be9fd;stroke-width:1.84012;stroke-linecap:round;stroke-linejoin:round;paint-order:stroke fill markers" transform="translate(100.29 -87.099)" class="fill-blue"/>
  <path d="M950 750a50 50 0 0 1-50 50 50 50 0 0 1-50-50 50 50 0 0 1 50-50 50 50 0 0 1 50 50m-250 0a50 50 0 0 1-50 50 50 50 0 0 1-50-50 50 50 0 0 1 50-50 50 50 0 0 1 50 50m500 0a50 50 0 0 1-50 50 50 50 0 0 1-50-50 50 50 0 0 1 50-50 50 50 0 0 1 50 50" style="fill:#f8f8f2;stroke:none;stroke-width:2.25367;stroke-linecap:round;stroke-linejoin:round;paint-order:stroke fill markers" transform="translate(100.29 -87.099)" class="stroke-comment fill-comment"/>
  <text x="670.095" y="825.802" style="font-size:112.438px;font-family:Inter;-inkscape-font-specification:Inter;text-align:start;writing-mode:lr-tb;direction:ltr;text-anchor:start;fill:#f8f8f2;stroke:none;stroke-width:4.68661;stroke-linejoin:round;paint-order:stroke fill markers" class="stroke-comment fill-comment">           <tspan x="670.095" y="825.802">-2</tspan>        </text>
  <text x="1170.095" y="825.802" style="font-size:112.438px;font-family:Inter;-inkscape-font-specification:Inter;text-align:start;writing-mode:lr-tb;direction:ltr;text-anchor:start;fill:#f8f8f2;stroke:none;stroke-width:4.68661;stroke-linejoin:round;paint-order:stroke fill markers" class="stroke-comment fill-comment">           <tspan x="1170.095" y="825.802">-2</tspan>        </text>
  <text x="930.553" y="825.802" style="font-size:112.438px;font-family:Inter;-inkscape-font-specification:Inter;text-align:start;writing-mode:lr-tb;direction:ltr;text-anchor:start;fill:#f8f8f2;stroke:none;stroke-width:4.68661;stroke-linejoin:round;paint-order:stroke fill markers" class="stroke-comment fill-comment">           <tspan x="930.553" y="825.802">-1</tspan>        </text>
  <path d="M831.574 462.425h-250v40h250zm250 0h-250v40h250z" style="fill:#ffb86c;stroke-width:1.84012;stroke-linecap:round;stroke-linejoin:round;paint-order:stroke fill markers" transform="translate(168.715 -69.524)" class="fill-orange"/>
  <path d="M781.574 482.425a50 50 0 0 0 50 50 50 50 0 0 0 50-50 50 50 0 0 0-50-50 50 50 0 0 0-50 50" style="fill:#f8f8f2;stroke-width:2.25367;stroke-linecap:round;stroke-linejoin:round;paint-order:stroke fill markers" transform="translate(168.715 -69.524)" class="stroke-comment fill-comment"/>
</svg>
