<?xml version="1.0" encoding="UTF-8" standalone="no"?>
<svg
   viewBox="0 0 120.39215 118.42489"
   version="1.1"
   id="svg11"
   sodipodi:docname="arbor_grafting_flavor_2.svg"
   inkscape:version="1.4.2 (ebf0e940d0, 2025-05-08)"
   xmlns:inkscape="http://www.inkscape.org/namespaces/inkscape"
   xmlns:sodipodi="http://sodipodi.sourceforge.net/DTD/sodipodi-0.dtd"
   xmlns="http://www.w3.org/2000/svg"
   xmlns:svg="http://www.w3.org/2000/svg">
  <defs
     id="defs11" />
  <sodipodi:namedview
     id="namedview11"
     pagecolor="#282a36"
     bordercolor="#000000"
     borderopacity="0.25"
     inkscape:showpageshadow="2"
     inkscape:pageopacity="0.0"
     inkscape:pagecheckerboard="0"
     inkscape:deskcolor="#d1d1d1"
     inkscape:zoom="3.995282"
     inkscape:cx="47.556092"
     inkscape:cy="27.907917"
     inkscape:window-width="2234"
     inkscape:window-height="1418"
     inkscape:window-x="0"
     inkscape:window-y="0"
     inkscape:window-maximized="1"
     inkscape:current-layer="svg11" />
  <path
     style="fill:none;stroke:#f8f8f2;stroke-width:5.51562;stroke-dasharray:none;stroke-opacity:1"
     d="M 70.386,37.515 36.861,71.039"
     id="path12" />
  <path
     style="fill:none;stroke:#ffb86c;stroke-width:5.51562;stroke-dasharray:none;stroke-opacity:1"
     d="m 70.386,37.515 32.82,32.82"
     id="path14" />
  <path
     style="fill:none;stroke:#f8f8f2;stroke-width:5.51562;stroke-dasharray:none;stroke-opacity:1"
     d="M 70.386,0 V 37.515"
     id="path6" />
  <path
     style="fill:#ffb86c;stroke-width:0.394911"
     d="m 102.581,75.638 a 6.032,6.114 0 0 1 -6.032,-6.114 6.032,6.114 0 0 1 6.032,-6.114 6.032,6.114 0 0 1 6.032,6.114 6.032,6.114 0 0 1 -6.032,6.114"
     id="path11" />
  <path
     style="fill:#f8f8f2;stroke-width:0.394911"
     d="m 70.405,44.526 c -3.33138,0 -6.032,-2.737331 -6.032,-6.114 0,-3.376669 2.70062,-6.114 6.032,-6.114 3.33138,0 6.032,2.737331 6.032,6.114 0,3.376669 -2.70062,6.114 -6.032,6.114"
     id="path7"
     sodipodi:nodetypes="csssc" />
  <path
     style="fill:#f8f8f2;stroke-width:0.394911"
     d="m 38.21,75.638 a 6.032,6.114 0 0 1 -6.033,-6.114 6.032,6.114 0 0 1 6.032,-6.114 6.032,6.114 0 0 1 6.032,6.114 6.032,6.114 0 0 1 -6.032,6.114"
     id="path8" />
  <g
     id="g14"
     transform="translate(-101,14.573905)">
    <g
       id="svg11-5"
       transform="translate(-13.73944,17.434102)">
      <path
         style="fill:none;stroke:#f8f8f2;stroke-width:5.51562;stroke-dasharray:none;stroke-opacity:1"
         d="m 152.94844,37.515993 -33.525,33.524"
         id="path12-3" />
      <path
         style="fill:#f8f8f2;stroke-width:0.394911"
         d="m 120.77244,75.638993 a 6.032,6.114 0 0 1 -6.033,-6.114 6.032,6.114 0 0 1 6.032,-6.114 6.032,6.114 0 0 1 6.032,6.114 6.032,6.114 0 0 1 -6.032,6.114"
         id="path8-5" />
    </g>
  </g>
  <path
     style="font-size:1.95741px;font-family:FreeMono;-inkscape-font-specification:FreeMono;fill:none;stroke:#bd93f9;stroke-width:0;stroke-linejoin:round;stroke-miterlimit:4.1"
     d="m 76.832,73.954 q 0.017,0 0.036,0.02 0.019,0.02 0.019,0.048 0,0.027 -0.02,0.047 -0.019,0.02 -0.044,0.02 -0.016,0 -0.03,-0.01 -0.015,-0.01 -0.046,-0.042 L 76.676,73.96 h -0.001 v 0.116 h 0.013 q 0.01,0 0.01,0.008 0,0.007 -0.01,0.007 H 76.66 v -0.145 h 0.022 l 0.081,0.087 q 0.026,0.025 0.037,0.033 0.011,0.008 0.024,0.008 0.019,0 0.033,-0.016 0.015,-0.015 0.015,-0.036 0,-0.019 -0.011,-0.035 -0.011,-0.015 -0.028,-0.019 -0.007,-0.002 -0.007,-0.008 0,-0.003 0.002,-0.005 0.002,-0.002 0.005,-0.002 z"
     id="path9" />
  <text
     x="43.138824"
     y="84.538757"
     style="font-size:21.1046px;font-family:Inter;-inkscape-font-specification:Inter;text-align:start;writing-mode:lr-tb;direction:ltr;text-anchor:start;fill:#f8f8f2;stroke-width:0.879677;stroke-linejoin:round;paint-order:stroke fill markers"
     class="fill-purple"
     id="text11"><tspan
       x="43.138824"
       y="84.538757"
       id="tspan11"
       style="fill:#f8f8f2;stroke-width:0.879677">-2</tspan></text>
  <text
     x="11.718657"
     y="118.2188"
     style="font-size:21.1046px;font-family:Inter;-inkscape-font-specification:Inter;text-align:start;writing-mode:lr-tb;direction:ltr;text-anchor:start;fill:#f8f8f2;stroke-width:0.879677;stroke-linejoin:round;paint-order:stroke fill markers"
     class="fill-purple"
     id="text11-2"><tspan
       x="11.718657"
       y="118.2188"
       id="tspan11-9"
       style="fill:#f8f8f2;stroke-width:0.879677">3</tspan></text>
  <text
     x="108.61356"
     y="88.982651"
     style="font-size:21.1046px;font-family:Inter;-inkscape-font-specification:Inter;text-align:start;writing-mode:lr-tb;direction:ltr;text-anchor:start;fill:#ffb86c;stroke-width:0.879677;stroke-linejoin:round;paint-order:stroke fill markers"
     class="fill-purple"
     id="text11-2-2"><tspan
       x="108.61356"
       y="88.982651"
       id="tspan11-9-7"
       style="fill:#ffb86c;stroke-width:0.879677">3</tspan></text>
  <text
     x="80.820236"
     y="41.704845"
     style="font-size:21.1046px;font-family:Inter;-inkscape-font-specification:Inter;text-align:start;writing-mode:lr-tb;direction:ltr;text-anchor:start;fill:#f8f8f2;stroke-width:0.879677;stroke-linejoin:round;paint-order:stroke fill markers"
     class="fill-purple"
     id="text11-2-2-3"><tspan
       x="80.820236"
       y="41.704845"
       id="tspan11-9-7-6"
       style="fill:#f8f8f2;stroke-width:0.879677">-1</tspan></text>
</svg>
