<?xml version="1.0" encoding="UTF-8" standalone="no"?>
<svg
   xml:space="preserve"
   viewBox="0 0 191.9246 442.80241"
   version="1.1"
   id="svg3"
   sodipodi:docname="0.svg"
   inkscape:version="1.4.2 (ebf0e940d0, 2025-05-08)"
   xmlns:inkscape="http://www.inkscape.org/namespaces/inkscape"
   xmlns:sodipodi="http://sodipodi.sourceforge.net/DTD/sodipodi-0.dtd"
   xmlns="http://www.w3.org/2000/svg"
   xmlns:svg="http://www.w3.org/2000/svg"><defs
   id="defs3" /><sodipodi:namedview
   id="namedview3"
   pagecolor="#ffffff"
   bordercolor="#000000"
   borderopacity="0.25"
   inkscape:showpageshadow="2"
   inkscape:pageopacity="0.0"
   inkscape:pagecheckerboard="0"
   inkscape:deskcolor="#d1d1d1"
   inkscape:zoom="1.4972695"
   inkscape:cx="202.36838"
   inkscape:cy="231.42126"
   inkscape:window-width="2234"
   inkscape:window-height="1418"
   inkscape:window-x="0"
   inkscape:window-y="0"
   inkscape:window-maximized="1"
   inkscape:current-layer="svg3" />
  <path
   d="m 50,334.8967 a 50,50 0 0 1 50,50 50,50 0 0 1 -50,50 50,50 0 0 1 -50,-50 50,50 0 0 1 50,-50"
   style="fill:#f8f8f2;stroke-width:2.25367;stroke-linecap:round;stroke-linejoin:round;paint-order:stroke fill markers"
   class="stroke-foreground fill-foreground"
   id="path1" />
  <path
   d="m 30,384.8967 v -250 h 40 v 250 z"
   style="fill:#f8f8f2;stroke-width:1.84012;stroke-linecap:round;stroke-linejoin:round;paint-order:stroke fill markers"
   class="stroke-foreground fill-foreground"
   id="path2" />
<path
   style="fill:#f8f8f2;stroke-width:18.9867;stroke-linejoin:round;paint-order:stroke fill markers"
   d="M 32.129912,-5.915761e-6 H 50.735827 V 84.725233 q 0,5.781499 1.366536,8.724808 1.471655,2.943308 3.679136,3.99449 2.207481,0.946064 4.730317,0.946064 1.892127,0 4.099609,-0.420473 2.312599,-0.525591 3.258663,-0.840945 L 67.76497,112.8969 q -1.892127,0.73583 -5.045672,1.47166 -3.153545,0.73582 -8.094099,0.73582 -5.991735,0 -11.142525,-2.83819 -5.15079,-2.94331 -8.304335,-9.56575 -3.048427,-6.727563 -3.048427,-18.080325 z"
   id="text1"
   aria-label="ι" /><path
   d="m 191.92461,375.91668 v 17.18592 q 0,13.85712 -2.16759,23.37905 -2.09018,9.52193 -6.0383,15.32798 -3.94812,5.80606 -9.52193,8.43814 -5.4964,2.55466 -12.38625,2.55466 -5.41898,0 -10.14124,-1.62569 -4.64485,-1.6257 -8.36072,-5.18675 -3.71588,-3.63846 -6.34796,-9.44451 -2.63207,-5.80606 -4.02553,-14.08936 -1.39345,-8.28331 -1.39345,-19.35352 v -17.18592 q 0,-13.85712 2.16759,-23.22422 2.1676,-9.3671 6.11572,-15.01833 4.02553,-5.72864 9.52193,-8.20589 5.57381,-2.47725 12.38625,-2.47725 5.49639,0 10.14124,1.62569 4.72226,1.54829 8.36072,5.03192 3.71587,3.40622 6.34795,9.13486 2.63208,5.65123 3.94812,13.85712 1.39345,8.20589 1.39345,19.2761 z m -13.62487,19.50834 v -21.90818 q 0,-7.58658 -0.69673,-13.31522 -0.69673,-5.80605 -2.09018,-9.909 -1.31604,-4.10294 -3.32881,-6.65761 -2.01276,-2.55466 -4.64484,-3.71587 -2.63208,-1.23863 -5.80605,-1.23863 -3.94812,0 -7.04468,1.93536 -3.01915,1.85793 -5.18675,5.96088 -2.09018,4.10294 -3.17397,10.76055 -1.0838,6.65761 -1.0838,16.17954 v 21.90818 q 0,7.58658 0.69673,13.39264 0.77414,5.80605 2.09018,10.06383 1.39345,4.18035 3.40622,6.88985 2.01276,2.70949 4.64484,4.02553 2.63208,1.23862 5.72864,1.23862 4.10295,0 7.12209,-2.01276 3.09657,-2.01277 5.18675,-6.27054 2.09018,-4.33519 3.09656,-11.07021 1.0838,-6.81244 1.0838,-16.25696 z"
   id="text2"
   style="fill:#f8f8f2;stroke-width:13.9827;stroke-linejoin:round;paint-order:stroke fill markers"
   aria-label="0" /></svg>
