<?xml version="1.0" encoding="UTF-8" standalone="no"?>
<svg
   viewBox="0 0 9432.26 2748.645"
   version="1.1"
   id="svg39"
   sodipodi:docname="bnd_f3.svg"
   inkscape:version="1.4.2 (ebf0e940d0, 2025-05-08)"
   xmlns:inkscape="http://www.inkscape.org/namespaces/inkscape"
   xmlns:sodipodi="http://sodipodi.sourceforge.net/DTD/sodipodi-0.dtd"
   xmlns="http://www.w3.org/2000/svg"
   xmlns:svg="http://www.w3.org/2000/svg">
  <defs
     id="defs39" />
  <sodipodi:namedview
     id="namedview39"
     pagecolor="#ffffff"
     bordercolor="#000000"
     borderopacity="0.25"
     inkscape:showpageshadow="2"
     inkscape:pageopacity="0.0"
     inkscape:pagecheckerboard="0"
     inkscape:deskcolor="#d1d1d1"
     inkscape:zoom="0.81248094"
     inkscape:cx="1944.661"
     inkscape:cy="425.24075"
     inkscape:window-width="2234"
     inkscape:window-height="1418"
     inkscape:window-x="0"
     inkscape:window-y="0"
     inkscape:window-maximized="1"
     inkscape:current-layer="g39" />
  <path
     d="M108.651 1225.97v113.043h-353.494v92.217h353.494v113.042l271.919-159.154Zm0-1663.225v113.043h-353.494v92.216h353.494v113.042L380.57-278.108Z"
     class="stroke-comment fill-comment"
     style="display:inline;fill:#f8f8f2;stroke:none;stroke-width:30.2464;stroke-miterlimit:4.1;stroke-dasharray:none"
     transform="translate(4648.267 641.709)"
     id="path1" />
  <path
     d="M617.868 941.25v232.055c78.143-321.823 1786.698-302.886 1856.443 0V941.25c-33.209-293.136-1763.62-324.878-1856.443 0"
     class=""
     style="display:inline;fill:#ffb86e;fill-opacity:0.47843137;stroke:none;stroke-width:12.2989;stroke-dasharray:none;stroke-opacity:1"
     transform="translate(4496.024 -69.623)scale(1.98288)"
     id="path2" />
  <path
     d="M617.868 1173.305c0-30.446 23.454-59.523 66.09-86.162m1719.343-3.012c45.749 27.454 71.01 57.577 71.01 89.174m-1676.88-137.209c168.936-57.514 441.358-94.846 748.658-94.846 308.316 0 581.522 37.58 750.33 95.417M617.868 941.25c0-128.161 415.58-232.056 928.222-232.056s928.22 103.895 928.22 232.055"
     class="stroke-orange"
     style="display:inline;fill:none;stroke:#ffb86c;stroke-width:30.2362;stroke-dasharray:none;stroke-opacity:1"
     transform="translate(4496.024 -69.623)scale(1.98288)"
     id="path3" />
  <path
     d="M617.868 941.25v232.055M2474.31 941.25v232.055"
     class="stroke-orange"
     style="display:inline;fill:none;fill-opacity:1;stroke:#ffb86c;stroke-width:30.2362;stroke-dasharray:none;stroke-opacity:1"
     transform="translate(4496.024 -69.623)scale(1.98288)"
     id="path4" />
  <path
     d="M1808.986 719.192c113.76 8.398 192.478 19.847 303.438 37.866l-31.088 226.02c-121.764-18.488-180.046-25.25-285.773-33.351Z"
     class="stroke-comment fill-comment stroke-comment"
     style="fill:#f8f8f2;fill-opacity:.696605;stroke:#f8f8f2;stroke-width:3.01671;stroke-dasharray:none;stroke-opacity:1"
     transform="translate(4496.024 -69.623)scale(1.98288)"
     id="path5" />
  <path
     d="M1348.661 1168c101.348 3.467 73.734 1.765 184.248 6.794l.093 222.65c-1.592-.28-185.14-2.78-185.14-2.78z"
     class="stroke-comment fill-comment stroke-comment"
     style="display:inline;fill:#f8f8f2;fill-opacity:.878431;stroke:#6272a4;stroke-width:3.01671;stroke-dasharray:none;stroke-opacity:1"
     transform="translate(4496.024 -69.623)scale(1.98288)"
     id="path6" />
  <path
     d="M1348.661 1168c-65.61-3.21-137.732-10.12-199.236-16.891-48.826-5.376-114.201 69.358-153.238 106-25.82-50.174-53.932-138.758-91.396-148.146-151.555-37.98-265.805-93.8-286.923-167.713v232.055c9.956 66.345 99.771 118.473 235.003 156.375 33.91 9.504 113.63-47.094 143.316-72.57 12.189 1.71 38.712 111.845 72.982 116.906 88.653 13.092 177.796 20.708 277.85 25.996m187.373 4.59c458.7 1.388 925.652-75.157 939.919-231.298V941.248c-15.72 149.645-481.238 231.287-942.606 231.177"
     style="display:inline;fill:#ffb86e;fill-opacity:0.47843137;stroke:none;stroke-width:12.2989;stroke-dasharray:none;stroke-opacity:1"
     transform="translate(4496.024 -69.623)scale(1.98288)"
     id="path7"
     class="" />
  <path
     d="M2474.31 941.25c0 128.16-430.802 232.055-943.445 232.055m-180.795-5.185c-71.096-3.82-139.168-9.677-203.19-17.313m-242.681-41.932c-176.453-42.242-286.33-101.726-286.33-167.626m1856.441 232.056c0 128.16-415.578 232.056-928.22 232.056q-6.643-.002-13.267-.023"
     class="stroke-orange"
     style="display:inline;fill:none;stroke:#ffb86c;stroke-width:30.2362;stroke-dasharray:none;stroke-opacity:1"
     transform="translate(4496.024 -69.623)scale(1.98288)"
     id="path8" />
  <path
     d="M904.791 1108.963c46.546 10.635 34.611 36.458 65.21 94.525"
     class="stroke-orange"
     style="fill:none;fill-opacity:1;stroke:#ffb86c;stroke-width:30.2362;stroke-linecap:round;stroke-dasharray:none;stroke-opacity:1"
     transform="translate(4496.024 -69.623)scale(1.98288)"
     id="path9" />
  <path
     d="M1347.019 1400.012c-90.846-4.995-177.907-13.383-256.627-24.494M843.64 1325a1105 1105 0 0 1-24.875-7.504c-125.77-39.597-200.897-89.701-200.897-144.192"
     class="stroke-orange"
     style="display:inline;fill:none;stroke:#ffb86c;stroke-width:30.2362;stroke-dasharray:none;stroke-opacity:1"
     transform="translate(4496.024 -69.623)scale(1.98288)"
     id="path10" />
  <path
     d="M1149.425 1151.109c-77.708-13.671-189.15 200.198-302.523 174.83M1020 1303.488c30.598 58.067 22.012 65.265 66.634 72.532"
     class="stroke-orange"
     style="fill:none;fill-opacity:1;stroke:#ffb86c;stroke-width:30.2362;stroke-linecap:round;stroke-dasharray:none;stroke-opacity:1"
     transform="translate(4496.024 -69.623)scale(1.98288)"
     id="path11" />
  <g
     style="stroke-width:11.3386;stroke-dasharray:none"
     id="g14"
     transform="rotate(-90,7352.22,2474.0907)"
     class="">
    <path
       d="M 262.944,202.316 V 352.704"
       class="fill-pink stroke-red"
       style="fill:#ff79c6;fill-opacity:0.766511;stroke:#ff5555;stroke-width:11.3386;stroke-miterlimit:3.6;stroke-dasharray:none"
       transform="matrix(1.9022,0,0,1.8749,6870.3,1948.434)"
       id="path12" />
    <path
       d="M 222.727,316.641 V 202.316"
       class="fill-pink stroke-red"
       style="fill:#ff79c6;fill-opacity:0.766511;stroke:#ff5555;stroke-width:10.5867;stroke-miterlimit:3.6;stroke-dasharray:none"
       transform="matrix(1.9022,0,0,1.8749,6870.3,1948.434)"
       id="path13" />
    <path
       d="m -1501.997,1228.9 h 145.586"
       class="fill-pink stroke-red"
       style="fill:#ff79c6;fill-opacity:0.766511;stroke:#ff5555;stroke-width:10.7989;stroke-miterlimit:3.6;stroke-dasharray:none"
       transform="matrix(1.98288,0,0,-1.98288,10186.16,5046.48)"
       id="path14" />
  </g>
  <g
     transform="translate(5249.791 957.154)scale(1.49157)"
     id="g21">
    <path
       d="m503.416-633.225 299.658 300.812m99.156 99.156 249.965 249.965c51.222 51.222 51.222 51.222 102.444 0l57.035-58.413"
       class="stroke-orange"
       style="fill:none;stroke:#ffb86c;stroke-width:22.0951;stroke-miterlimit:4.1;stroke-dasharray:none"
       id="path15" />
    <path
       d="m503.416 67.93 650.685-651.84c49.315-49.315 49.315-49.315 98.63 0l61.83 61.778"
       class="stroke-orange"
       style="fill:none;stroke:#ffb86c;stroke-width:22.0951;stroke-miterlimit:4.1;stroke-dasharray:none"
       id="path16" />
    <path
       d="m443.954-231.991 66.008-64.183c15.857-11.966 15.856-11.953 33.703-11.802l506.692-1.499M443.954 135.18l66.008 64.183c15.857 11.966 15.856 11.953 33.703 11.802l506.692 1.499"
       class="stroke-orange"
       style="fill:none;stroke:#ffb86c;stroke-width:16.5705;stroke-linecap:butt;stroke-linejoin:miter;stroke-dasharray:none;stroke-opacity:1"
       transform="matrix(1.33333 0 0 -1.33333 1203.909 -347.11)"
       id="path17" />
    <g
       style="display:inline"
       id="g18"
       class="">
      <path
         d="M95.987 238.496c-40.02-3.626-73.497-31.904-83.754-70.747-4.013-15.198-4.013-33.368 0-48.566 9.68-36.655 39.637-63.734 77.404-69.965 6.991-1.154 22.642-1.154 29.633 0 41.257 6.807 72.625 38.175 79.432 79.431 1.85 11.211.998 27.643-2.028 39.1-9.657 36.57-39.811 63.872-77.228 69.921-4.454.72-18.981 1.232-23.46.826m22.401-5.72c52.756-8.696 86.477-59.58 73.702-111.214-8.706-35.184-37.598-61.553-73.878-67.425-6.899-1.117-21.007-1.118-27.693-.003-39.313 6.559-69.069 36.348-75.386 75.472-1.068 6.615-1.147 20.3-.155 26.736 6.489 42.08 39.946 73.562 82.067 77.22 4.23.368 17.254-.112 21.343-.787"
         class="stroke-comment fill-comment"
         style="display:inline;fill:#6272a4;fill-opacity:1;stroke:none;stroke-width:.352778;stroke-opacity:1"
         transform="matrix(-3.68074 0 0 3.6839 1930.537 -811.195)"
         id="path18" />
    </g>
    <circle
       cx="1546.09"
       cy="-282.57"
       r="340"
       class="stroke-comment fill-comment"
       style="display:inline;fill:#6272a4;fill-opacity:.620214;stroke:none;stroke-width:25.0551;stroke-miterlimit:4.1"
       id="circle18" />
    <g
       style="stroke-width:11.3386;stroke-dasharray:none"
       id="g20"
       transform="rotate(-90,1546.0844,-282.56994)"
       class="">
      <path
         d="M 262.944,202.316 V 352.704 M 232.105,333.456 V 202.316"
         class="fill-pink stroke-red"
         style="fill:#ff79c6;fill-opacity:0.766511;stroke:#ff5555;stroke-width:11.3386;stroke-miterlimit:3.6;stroke-dasharray:none"
         transform="matrix(2.74684,0,0,2.74684,850.178,-1052.633)"
         id="path19" />
      <path
         d="m 1444.917,-188.894 h 202.346"
         class="fill-pink stroke-red"
         style="fill:#ff79c6;fill-opacity:0.766511;stroke:#ff5555;stroke-width:15.1181;stroke-miterlimit:3.6;stroke-dasharray:none"
         transform="matrix(2.06013,0,0,2.06013,-1639.062,305.337)"
         id="path20" />
    </g>
  </g>
  <path
     d="M-1521.512 1168.823c-367.334-17.976-692.036-91.103-730.793-226.75v232.055c19.68 131.146 351.407 206.741 729.151 226.707m187.373 4.59c99.869.325 163.822-.51 259.716-7.618 31.707-2.348 56.63-6.413 123.096-114.872 89.41 95.795 87.367 92.543 113.782 89.107 272.244-35.42 430.31-119.882 443.325-197.915V942.07c-9.995 95.15-189.507 160.092-446.508 196.722-37.618 5.361-94.599 107.214-110.6 144.142-24.26-20.277-90.088-119.951-126.444-117.476-84.715 5.769-172.379 8.689-259.894 8.669"
     style="display:inline;fill:#ffb86e;fill-opacity:0.47842121;stroke:none;stroke-width:12.2989;stroke-dasharray:none;stroke-opacity:1"
     transform="translate(4496.024 -69.623)scale(1.98288)"
     id="path21"
     class="" />
  <path
     d="M-2252.305 942.073v232.055c78.143-321.824 1786.698-302.886 1856.443 0V942.073c-33.208-293.136-1763.62-324.878-1856.443 0"
     class=""
     style="display:inline;fill:#ffb86e;fill-opacity:0.47843137;stroke:none;stroke-width:12.2989;stroke-dasharray:none;stroke-opacity:1"
     transform="translate(4496.024 -69.623)scale(1.98288)"
     id="path22" />
  <path
     d="M-466.872 1084.954c45.749 27.454 71.01 57.577 71.01 89.174 0 83.73-177.382 157.103-443.325 197.914m-236.878 25.765c-78.948 5.46-162.12 8.376-248.018 8.376q-6.645-.002-13.267-.023m-187.008-5.392c-416.374-22.892-727.947-115.67-727.947-226.64 0-30.446 23.454-59.523 66.091-86.162m113.472-51.047c168.936-57.514 441.358-94.846 748.659-94.846 308.315 0 581.521 37.58 750.329 95.417"
     class="stroke-orange"
     style="display:inline;fill:none;stroke:#ffb86c;stroke-width:30.2362;stroke-dasharray:none;stroke-opacity:1"
     transform="translate(4496.024 -69.623)scale(1.98288)"
     id="path23" />
  <path
     d="M-1520.102 1168.944c-418.505-22.492-732.203-115.524-732.203-226.872 0-128.16 415.58-232.055 928.222-232.055s928.221 103.895 928.221 232.055c0 82.921-180.341 155.683-446.508 196.72m-248.139 26.984c-79.552 5.444-163.03 8.352-248.798 8.352"
     class="stroke-orange"
     style="display:inline;fill:none;stroke:#ffb86c;stroke-width:30.2362;stroke-dasharray:none;stroke-opacity:1"
     transform="translate(4496.024 -69.623)scale(1.98288)"
     id="path24" />
  <path
     d="M-2252.305 942.073v232.055m1856.443-232.055v232.055"
     class="stroke-orange"
     style="display:inline;fill:none;fill-opacity:1;stroke:#ffb86c;stroke-width:30.2362;stroke-dasharray:none;stroke-opacity:1"
     transform="translate(4496.024 -69.623)scale(1.98288)"
     id="path25" />
  <path
     d="M-1061.187 720.015c113.76 8.398 192.478 19.847 303.438 37.866l-31.088 226.02c-121.764-18.489-180.046-25.25-285.773-33.351Z"
     class="stroke-comment fill-comment stroke-comment"
     style="fill:#f8f8f2;fill-opacity:.696605;stroke:#f8f8f2;stroke-width:3.01671;stroke-dasharray:none;stroke-opacity:1"
     transform="translate(4496.024 -69.623)scale(1.98288)"
     id="path26" />
  <path
     d="m-1521.683 1174.377 181.683.622 2.828 223.266c-1.592-.279-185.14-2.78-185.14-2.78z"
     class="stroke-comment fill-comment stroke-comment"
     style="fill:#f8f8f2;fill-opacity:.878431;stroke:#f8f8f2;stroke-width:3.01671;stroke-dasharray:none;stroke-opacity:1"
     transform="translate(4496.024 -69.623)scale(1.98288)"
     id="path27" />
  <path
     d="M-1089.35 1165.697c47.61-3.614 42.939 26.38 89.35 72.791m90 90c46.411 46.412 29.985 49.467 74.759 43.204m-6.149-232.118c-78.274 9.937-119.68 248.89-235.482 258.209"
     class="stroke-orange"
     style="fill:none;fill-opacity:1;stroke:#ffb86c;stroke-width:30.2362;stroke-linecap:round;stroke-dasharray:none;stroke-opacity:1"
     transform="translate(4496.024 -69.623)scale(1.98288)"
     id="path28" />
  <g
     id="g1"
     transform="rotate(90,1661.036,2481.2808)">
    <path
       d="M -1420,1371.1 V 1228.9"
       class="fill-pink stroke-red"
       style="fill:#ff79c6;fill-opacity:0.766511;stroke:#ff5555;stroke-width:10.7989;stroke-miterlimit:3.6;stroke-dasharray:none"
       transform="matrix(1.98288,0,0,1.98288,4494.976,-91.11)"
       id="path29" />
    <path
       d="m -1452.529,1263 v 108.1"
       class="fill-pink stroke-red"
       style="fill:#ff79c6;fill-opacity:0.766511;stroke:#ff5555;stroke-width:10.0828;stroke-miterlimit:3.6;stroke-dasharray:none"
       transform="matrix(1.98288,0,0,1.98288,4494.976,-91.11)"
       id="path30" />
    <path
       d="m -1501.997,1228.9 h 145.586"
       class="fill-pink stroke-red"
       style="fill:#ff79c6;fill-opacity:0.766511;stroke:#ff5555;stroke-width:10.7989;stroke-miterlimit:3.6;stroke-dasharray:none"
       transform="matrix(1.98288,0,0,1.98288,4494.976,-91.11)"
       id="path31" />
  </g>
  <g
     transform="translate(3851.765 957.154)scale(1.49157)"
     id="g39">
    <path
       d="m-281.993 67.938-299.658-300.811m-99.156-99.157-249.965-249.964c-51.222-51.223-51.222-51.223-102.445 0l-57.034 58.412"
       class="stroke-orange"
       style="fill:none;stroke:#ffb86c;stroke-width:22.0951;stroke-miterlimit:4.1;stroke-dasharray:none"
       id="path32" />
    <path
       d="m-281.993-633.217-650.685 651.84c-49.315 49.315-49.315 49.315-98.63 0l-61.83-61.777"
       class="stroke-orange"
       style="fill:none;stroke:#ffb86c;stroke-width:22.0951;stroke-miterlimit:4.1;stroke-dasharray:none"
       id="path33" />
    <path
       d="m -1108.1451,-378.22956 -43.1173,5.33853 -0.964,-4.45538 -0.9624,-4.45539 -1.1036,-4.68529 -1.0655,-4.44111 -1.0702,-4.44429 -1.0687,-4.43953 -1.0686,-4.44587 -1.2383,-4.67894 -1.1781,-4.42685 -1.1812,-4.42526 -1.1781,-4.42526 -1.2843,-4.69321 -1.3001,-4.40782 -1.2986,-4.40782 -1.2986,-4.40782 -1.2985,-4.40781 -1.4746,-4.67895 -1.427,-4.38562 -1.4285,-4.38721 -1.427,-4.38244 -1.5729,-4.69164 -1.5665,-4.35708 -1.5665,-4.35866 -1.5666,-4.35708 -1.7044,-4.6948 -1.7156,-4.32537 -1.7171,-4.32379 -1.7172,-4.32537 -1.8804,-4.69638 -1.8821,-4.28574 -1.8804,-4.28255 -1.8821,-4.28574 -2.1167,-4.68053 -2.0644,-4.23816 -2.0612,-4.23817 -2.0612,-4.23658 -2.4306,-4.64565 -2.2578,-4.17949 -2.2642,-4.18109 -2.6177,-4.65516 -2.4846,-4.10498 -2.4829,-4.10656 -2.7732,-4.5093 -2.6669,-4.03838 -2.9602,-4.30318 -3.0553,-4.2889 -2.938,-3.93215 -3.3186,-4.20645 -3.4596,-4.18426 -3.6119,-4.14937 -3.4074,-3.70543 -3.9638,-4.00984 -4.17,-3.94008 -4.4078,-3.85922 -4.6631,-3.75299 -4.9533,-3.6198 -5.2687,-3.45332 -5.6129,-3.24244 -5.9791,-2.98083 -6.358,-2.65579 -7.7739,-2.54004 -7.1841,-1.68227 -8.2829,-1.16854 -8.5049,-0.37895 v 15.17209 l 0.4788,13.72449 13.7531,0.723 4.1065,1.6791 3.9924,1.96925 3.8688,2.2261 3.7514,2.45443 3.6277,2.64786 3.512,2.82069 3.4041,2.96814 3.298,3.09974 3.2028,3.21232 3.4057,3.70542 2.9444,3.39307 2.873,3.47551 2.8032,3.54053 2.9365,3.93215 2.6019,3.65944 2.5559,3.71018 2.6637,4.03839 2.2515,3.67846 2.4861,4.10657 2.4814,4.10339 2.0437,3.65468 2.2642,4.18109 2.261,4.17791 1.9645,3.74506 2.0628,4.23817 2.0612,4.23657 2.0612,4.23817 1.7393,3.86397 1.8821,4.28574 1.882,4.28414 1.8805,4.28573 1.5728,3.95118 1.7156,4.32537 1.7172,4.32379 1.7171,4.32536 1.4444,4.01302 1.5665,4.35708 1.5666,4.36025 1.5665,4.3555 1.3572,4.06217 1.427,4.38403 1.4286,4.38562 1.4254,4.38562 1.2986,4.10022 1.2985,4.40782 1.2986,4.40782 1.297,4.40782 1.3001,4.40782 1.1321,4.15096 1.178,4.42525 1.1813,4.42685 1.1796,4.42526 1.1099,4.1795 1.0687,4.43953 1.0686,4.4427 1.0671,4.44428 1.0671,4.44112 0.9957,4.21121 0.9624,4.45538 0.964,4.45697 -43.1157,5.34012 87.9898,213.67769 z"
       class="stroke-comment fill-comment"
       style="fill:#f8f8f2;stroke:none;stroke-width:16.943;stroke-miterlimit:4.1;stroke-dasharray:none"
       id="path34" />
    <path
       d="m-1573.84-36.148-88.012 85.577c-21.142 15.954-21.141 15.937-44.937 15.735l-675.589 1.999m808.538-592.873-88.012-85.578c-21.142-15.954-21.141-15.937-44.937-15.735l-675.589-1.999"
       class="stroke-orange"
       style="fill:none;stroke:#ffb86c;stroke-width:22.094;stroke-linecap:butt;stroke-linejoin:miter;stroke-dasharray:none;stroke-opacity:1"
       id="path35" />
    <g
       style="display:inline"
       id="g36"
       class="">
      <path
         d="M95.987 238.496c-40.02-3.626-73.497-31.904-83.754-70.747-4.013-15.198-4.013-33.368 0-48.566 9.68-36.655 39.637-63.734 77.404-69.965 6.991-1.154 22.642-1.154 29.633 0 41.257 6.807 72.625 38.175 79.432 79.431 1.85 11.211.998 27.643-2.028 39.1-9.657 36.57-39.811 63.872-77.228 69.921-4.454.72-18.981 1.232-23.46.826m22.401-5.72c52.756-8.696 86.477-59.58 73.702-111.214-8.706-35.184-37.598-61.553-73.878-67.425-6.899-1.117-21.007-1.118-27.693-.003-39.313 6.559-69.069 36.348-75.386 75.472-1.068 6.615-1.147 20.3-.155 26.736 6.489 42.08 39.946 73.562 82.067 77.22 4.23.368 17.254-.112 21.343-.787"
         class="stroke-comment fill-comment"
         style="display:inline;fill:#6272a4;fill-opacity:1;stroke:none;stroke-width:.352778;stroke-opacity:1"
         transform="matrix(3.68074 0 0 3.6839 -1708.53 -811.195)"
         id="path36" />
    </g>
    <circle
       cx="-1324.083"
       cy="-282.57"
       r="340"
       class="stroke-comment fill-comment"
       style="display:inline;fill:#6272a4;fill-opacity:.620214;stroke:none;stroke-width:25.0551;stroke-miterlimit:4.1"
       id="circle36" />
    <g
       style="stroke-width:11.3386;stroke-dasharray:none"
       id="g38"
       transform="matrix(0,1,1,0,-1041.5187,1041.5187)"
       class="">
      <path
         d="M 262.944,202.316 V 352.704 M 232.105,333.456 V 202.316"
         class="fill-pink stroke-red"
         style="fill:#ff79c6;fill-opacity:0.766511;stroke:#ff5555;stroke-width:11.3386;stroke-miterlimit:3.6;stroke-dasharray:none"
         transform="matrix(2.74684,0,0,2.74684,-2019.995,-1052.633)"
         id="path37" />
      <path
         d="m 1444.917,-188.894 h 202.346"
         class="fill-pink stroke-red"
         style="fill:#ff79c6;fill-opacity:0.766511;stroke:#ff5555;stroke-width:15.1181;stroke-miterlimit:3.6;stroke-dasharray:none"
         transform="matrix(2.06013,0,0,2.06013,-4509.235,305.337)"
         id="path38" />
    </g>
    <path
       d="m -1537.9411,-188.16569 43.2929,-5.44048 0.9795,4.47533 0.981,4.47534 1.0671,4.70945 1.0862,4.4594 1.083,4.46419 1.0846,4.46259 1.0862,4.4594 1.2104,4.70467 1.1945,4.44348 1.1944,4.44826 1.1945,4.44348 1.1945,4.44826 1.3808,4.69034 1.3092,4.42755 1.3139,4.42755 1.3108,4.42755 1.4652,4.69671 1.435,4.40367 1.4381,4.40684 1.4334,4.40526 1.5799,4.699894 1.5704,4.379773 1.5703,4.379774 1.5704,4.37818 1.72,4.701488 1.7201,4.346327 1.7152,4.346328 1.7153,4.34792 1.9112,4.69671 1.8729,4.308104 1.8762,4.309697 1.8745,4.308104 2.1565,4.679191 2.0513,4.26351 2.0497,4.26351 2.2775,4.698302 2.2456,4.207768 2.2441,4.206175 2.2456,4.20936 2.6693,4.645745 2.4574,4.136099 2.4607,4.1376908 2.8126,4.5071848 2.8413,4.3622542 2.768,4.0246134 3.0738,4.3001408 3.1853,4.284215 3.0515,3.903572 3.4719,4.196619 3.6265,4.159989 3.8,4.118579 3.9944,4.066022 3.7363,3.54682 4.4212,3.876498 4.6776,3.771383 4.9691,3.640786 5.2907,3.475151 5.638,3.266514 6.0106,3.005321 7.6925,3.134325 6.5617,2.099106 7.2465,1.700945 8.3726,1.178557 7.7084,0.388605 V 40.832741 l -4.2365,-0.195895 -3.4082,-0.447533 -4.2014,-0.969921 -4.4594,-1.449307 -2.854,-1.170594 -4.0103,-1.962138 -3.8956,-2.224925 -3.7746,-2.454266 -3.6567,-2.654939 -3.5405,-2.828537 -3.4337,-2.981431 -3.7348,-3.54682 -3.1406,-3.220328 -3.0547,-3.322257 -2.9751,-3.4114449 -2.905,-3.4926701 -3.0515,-3.90357246 -2.6852,-3.62485964 -2.6326,-3.6790095 -2.7681,-4.0246134 -2.451,-3.777754 -2.3094,-3.694935 -2.4606,-4.137692 -2.4575,-4.136098 -2.1214,-3.667861 -2.2456,-4.209361 -2.2408,-4.206175 -2.2457,-4.206174 -1.8315,-3.822348 -2.0497,-4.26351 -2.053,-4.265103 -1.7917,-3.886053 -1.8761,-4.309697 -1.8746,-4.308104 -1.8745,-4.309697 -1.6118,-3.978427 -1.7184,-4.346328 -1.7153,-4.346327 -1.7153,-4.347921 -1.4748,-4.04054 -1.5687,-4.379773 -1.5736,-4.379772 -1.5671,-4.37818 -1.3713,-4.0931 -1.4334,-4.40366 -1.4381,-4.40685 -1.435,-4.40526 -1.2916,-4.13291 -1.3108,-4.42755 -1.3107,-4.42596 -1.3124,-4.42755 -1.2327,-4.16477 -1.1929,-4.44507 -1.1945,-4.44667 -1.1944,-4.44348 -1.1945,-4.44825 -1.083,-4.20458 -1.0846,-4.4626 -1.0862,-4.46259 -1.0846,-4.4594 -1.0862,-4.46418 -0.9587,-4.23803 -0.9779,-4.47533 -0.9827,-4.47534 43.2945,-5.44047 -88.3488,-214.58341 z"
       class="stroke-comment fill-comment"
       style="fill:#f8f8f2;stroke:none;stroke-width:17.0209;stroke-miterlimit:4.1;stroke-dasharray:none"
       id="path39" />
  </g>
</svg>
