<?xml version="1.0" encoding="UTF-8" standalone="no"?>
<svg
   xml:space="preserve"
   viewBox="0 0 215.00012 299.99999"
   version="1.1"
   id="svg4"
   sodipodi:docname="am2.svg"
   inkscape:version="1.4.2 (ebf0e940d0, 2025-05-08)"
   xmlns:inkscape="http://www.inkscape.org/namespaces/inkscape"
   xmlns:sodipodi="http://sodipodi.sourceforge.net/DTD/sodipodi-0.dtd"
   xmlns="http://www.w3.org/2000/svg"
   xmlns:svg="http://www.w3.org/2000/svg"><defs
   id="defs4" /><sodipodi:namedview
   id="namedview4"
   pagecolor="#ffffff"
   bordercolor="#000000"
   borderopacity="0.25"
   inkscape:showpageshadow="2"
   inkscape:pageopacity="0.0"
   inkscape:pagecheckerboard="0"
   inkscape:deskcolor="#d1d1d1"
   inkscape:zoom="1.941329"
   inkscape:cx="67.479548"
   inkscape:cy="149.12465"
   inkscape:window-width="2254"
   inkscape:window-height="1502"
   inkscape:window-x="0"
   inkscape:window-y="0"
   inkscape:window-maximized="1"
   inkscape:current-layer="svg4" />
  <path
   d="M 50,200 A 50,50 0 0 1 100,250 50,50 0 0 1 50,300 50,50 0 0 1 0,250 50,50 0 0 1 50,200"
   style="fill:#f8f8f2;stroke-width:2.25367;stroke-linecap:round;stroke-linejoin:round;paint-order:stroke fill markers"
   class="stroke-foreground fill-foreground"
   id="path1" />
  <path
   d="M 30,250 V 0 h 40 v 250 z"
   style="fill:#f8f8f2;stroke-width:1.84012;stroke-linecap:round;stroke-linejoin:round;paint-order:stroke fill markers"
   class="stroke-foreground fill-foreground"
   id="path2" />
  <path
   d="m 150.32631,246.10246 v 9.11363 h -35.9055 v -9.11363 z m 12.57241,45.34853 v -7.52149 l 27.17618,-29.48203 q 4.55681,-4.94113 7.57639,-8.67442 3.01957,-3.73329 4.55681,-7.08228 1.53724,-3.40388 1.53724,-7.19208 0,-6.42346 -4.44701,-10.15675 -4.39211,-3.73329 -10.92538,-3.73329 -6.97247,0 -11.14497,4.1725 -4.11761,4.17251 -4.11761,11.09008 h -9.99205 q 0,-7.24698 3.34899,-12.73712 3.34898,-5.49014 9.11363,-8.50971 5.76464,-3.07448 13.06652,-3.07448 7.30188,0 12.90182,3.07448 5.65484,3.01957 8.83912,8.1803 3.23918,5.16073 3.23918,11.58419 0,4.44701 -1.59214,8.67442 -1.59214,4.1725 -5.59993,9.49793 -4.0078,5.32544 -11.25479,13.01163 l -17.89784,19.05077 v 0.65882 h 37.71724 v 9.16853 z"
   id="text4"
   style="font-size:112.438px;font-family:Inter;-inkscape-font-specification:Inter;fill:#f8f8f2;stroke-width:3.02362;stroke-linecap:round;stroke-linejoin:round;paint-order:stroke fill markers"
   class="stroke-foreground fill-foreground"
   aria-label="       -2    " />
</svg>
